<svg width="256" height="256" viewBox="0 0 256 256" fill="none" xmlns="http://www.w3.org/2000/svg">
  <!-- 背景圆形 -->
  <circle cx="128" cy="128" r="120" fill="url(#backgroundGradient)" stroke="url(#borderGradient)" stroke-width="4"/>
  
  <!-- 中央网络节点 -->
  <circle cx="128" cy="128" r="20" fill="url(#centerGradient)" stroke="#ffffff" stroke-width="2"/>
  
  <!-- 周围设备节点 -->
  <!-- 设备1 - 左上 -->
  <circle cx="80" cy="80" r="12" fill="url(#deviceGradient)" stroke="#ffffff" stroke-width="1.5"/>
  <rect x="74" y="74" width="12" height="9" rx="2" fill="#ffffff" opacity="0.8"/>
  
  <!-- 设备2 - 右上 -->
  <circle cx="176" cy="80" r="12" fill="url(#deviceGradient)" stroke="#ffffff" stroke-width="1.5"/>
  <rect x="170" y="74" width="12" height="9" rx="2" fill="#ffffff" opacity="0.8"/>
  
  <!-- 设备3 - 左下 -->
  <circle cx="80" cy="176" r="12" fill="url(#deviceGradient)" stroke="#ffffff" stroke-width="1.5"/>
  <rect x="74" y="170" width="12" height="9" rx="2" fill="#ffffff" opacity="0.8"/>
  
  <!-- 设备4 - 右下 -->
  <circle cx="176" cy="176" r="12" fill="url(#deviceGradient)" stroke="#ffffff" stroke-width="1.5"/>
  <rect x="170" y="170" width="12" height="9" rx="2" fill="#ffffff" opacity="0.8"/>
  
  <!-- 连接线 -->
  <line x1="108" y1="128" x2="92" y2="92" stroke="url(#lineGradient)" stroke-width="3" opacity="0.8"/>
  <line x1="148" y1="128" x2="164" y2="92" stroke="url(#lineGradient)" stroke-width="3" opacity="0.8"/>
  <line x1="108" y1="128" x2="92" y2="164" stroke="url(#lineGradient)" stroke-width="3" opacity="0.8"/>
  <line x1="148" y1="128" x2="164" y2="164" stroke="url(#lineGradient)" stroke-width="3" opacity="0.8"/>
  
  <!-- 传输动画点 -->
  <circle cx="100" cy="100" r="3" fill="#ffffff" opacity="0.9">
    <animateMotion dur="2s" repeatCount="indefinite">
      <path d="M 0,0 L 28,28 L 0,0"/>
    </animateMotion>
  </circle>
  
  <circle cx="156" cy="100" r="3" fill="#ffffff" opacity="0.9">
    <animateMotion dur="2.5s" repeatCount="indefinite">
      <path d="M 0,0 L -28,28 L 0,0"/>
    </animateMotion>
  </circle>
  
  <!-- 文件传输图标 -->
  <g transform="translate(118, 118)">
    <!-- 文件图标 -->
    <rect x="0" y="2" width="10" height="12" rx="1" fill="#ffffff" opacity="0.9"/>
    <path d="M8 2 L8 5 L11 5" stroke="#4f46e5" stroke-width="1" fill="none"/>
    
    <!-- 箭头 -->
    <path d="M12 8 L16 8 M14 6 L16 8 L14 10" stroke="#10b981" stroke-width="2" fill="none" stroke-linecap="round"/>
  </g>
  
  <!-- 渐变定义 -->
  <defs>
    <!-- 背景渐变 -->
    <linearGradient id="backgroundGradient" x1="0%" y1="0%" x2="100%" y2="100%">
      <stop offset="0%" style="stop-color:#6366f1;stop-opacity:1" />
      <stop offset="50%" style="stop-color:#8b5cf6;stop-opacity:1" />
      <stop offset="100%" style="stop-color:#06b6d4;stop-opacity:1" />
    </linearGradient>
    
    <!-- 边框渐变 -->
    <linearGradient id="borderGradient" x1="0%" y1="0%" x2="100%" y2="100%">
      <stop offset="0%" style="stop-color:#ffffff;stop-opacity:0.3" />
      <stop offset="100%" style="stop-color:#ffffff;stop-opacity:0.1" />
    </linearGradient>
    
    <!-- 中心节点渐变 -->
    <radialGradient id="centerGradient" cx="50%" cy="30%">
      <stop offset="0%" style="stop-color:#ffffff;stop-opacity:1" />
      <stop offset="100%" style="stop-color:#e5e7eb;stop-opacity:1" />
    </radialGradient>
    
    <!-- 设备节点渐变 -->
    <radialGradient id="deviceGradient" cx="50%" cy="30%">
      <stop offset="0%" style="stop-color:#10b981;stop-opacity:1" />
      <stop offset="100%" style="stop-color:#059669;stop-opacity:1" />
    </radialGradient>
    
    <!-- 连接线渐变 -->
    <linearGradient id="lineGradient" x1="0%" y1="0%" x2="100%" y2="100%">
      <stop offset="0%" style="stop-color:#ffffff;stop-opacity:0.8" />
      <stop offset="100%" style="stop-color:#e5e7eb;stop-opacity:0.6" />
    </linearGradient>
  </defs>
</svg> 